<?xml version="1.0" standalone="no"?>
<!DOCTYPE svg PUBLIC "-//W3C//DTD SVG 20010904//EN"
 "http://www.w3.org/TR/2001/REC-SVG-20010904/DTD/svg10.dtd">
<svg version="1.0" xmlns="http://www.w3.org/2000/svg"
 width="512.000000pt" height="512.000000pt" viewBox="0 0 512.000000 512.000000"
 preserveAspectRatio="xMidYMid meet">
<metadata>
Created by potrace 1.14, written by Peter Selinger 2001-2017
</metadata>
<g transform="translate(0.000000,512.000000) scale(0.100000,-0.100000)"
fill="#000000" stroke="none">
<path d="M2369 5116 c-2 -2 -33 -6 -69 -10 -390 -34 -812 -185 -1150 -411
-162 -108 -265 -191 -392 -318 -267 -266 -467 -576 -597 -925 -38 -101 -94
-287 -105 -349 -2 -15 -9 -53 -15 -83 -30 -161 -36 -242 -35 -470 0 -182 4
-267 19 -350 2 -14 7 -42 9 -62 15 -105 62 -285 107 -416 207 -594 628 -1096
1177 -1401 286 -159 640 -271 972 -308 87 -10 459 -10 540 0 155 18 301 47
435 86 817 235 1469 865 1730 1671 37 116 82 299 91 374 3 23 7 47 9 53 19 57
27 493 13 623 -57 506 -244 959 -555 1345 -409 508 -989 838 -1633 930 -19 3
-53 7 -75 11 -44 6 -471 15 -476 10z"/>
</g>
</svg>
